<?xml version="1.0" encoding="utf-8" standalone="no"?>
<!DOCTYPE svg PUBLIC "-//W3C//DTD SVG 1.1//EN"
  "http://www.w3.org/Graphics/SVG/1.1/DTD/svg11.dtd">
<svg xmlns:xlink="http://www.w3.org/1999/xlink" width="411.03375pt" height="28.11625pt" viewBox="0 0 411.03375 28.11625" xmlns="http://www.w3.org/2000/svg" version="1.1">
 <metadata>
  <rdf:RDF xmlns:dc="http://purl.org/dc/elements/1.1/" xmlns:cc="http://creativecommons.org/ns#" xmlns:rdf="http://www.w3.org/1999/02/22-rdf-syntax-ns#">
   <cc:Work>
    <dc:type rdf:resource="http://purl.org/dc/dcmitype/StillImage"/>
    <dc:date>2026-08-18T14:38:01.844828</dc:date>
    <dc:format>image/svg+xml</dc:format>
    <dc:creator>
     <cc:Agent>
      <dc:title>Matplotlib v3.5.1, https://matplotlib.org/</dc:title>
     </cc:Agent>
    </dc:creator>
   </cc:Work>
  </rdf:RDF>
 </metadata>
 <defs>
  <style type="text/css">*{stroke-linejoin: round; stroke-linecap: butt}</style>
 </defs>
 <g id="figure_1">
  <g id="patch_1">
   <path d="M 0 28.11625 
L 411.03375 28.11625 
L 411.03375 0 
L 0 0 
z
" style="fill: #ffffff"/>
  </g>
  <g id="legend_1">
   <g id="line2d_1">
    <defs>
     <path id="m402a2590c7" d="M 0 3 
C 0.795609 3 1.55874 2.683901 2.12132 2.12132 
C 2.683901 1.55874 3 0.795609 3 0 
C 3 -0.795609 2.683901 -1.55874 2.12132 -2.12132 
C 1.55874 -2.683901 0.795609 -3 0 -3 
C -0.795609 -3 -1.55874 -2.683901 -2.12132 -2.12132 
C -2.683901 -1.55874 -3 -0.795609 -3 0 
C -3 0.795609 -2.683901 1.55874 -2.12132 2.12132 
C -1.55874 2.683901 -0.795609 3 0 3 
z
" style="stroke: #2166ac"/>
    </defs>
    <g>
     <use xlink:href="#m402a2590c7" x="18.4" y="13.32625" style="fill: #ffffff; stroke: #2166ac"/>
    </g>
   </g>
   <g id="text_1">
    <text style="font: 8px 'sans-serif'; text-anchor: start" x="30" y="16.12625" transform="rotate(-0, 30, 16.12625)">Online model</text>
   </g>
   <g id="line2d_2">
    <defs>
     <path id="m2e2e035086" d="M 0 3 
C 0.795609 3 1.55874 2.683901 2.12132 2.12132 
C 2.683901 1.55874 3 0.795609 3 0 
C 3 -0.795609 2.683901 -1.55874 2.12132 -2.12132 
C 1.55874 -2.683901 0.795609 -3 0 -3 
C -0.795609 -3 -1.55874 -2.683901 -2.12132 -2.12132 
C -2.683901 -1.55874 -3 -0.795609 -3 0 
C -3 0.795609 -2.683901 1.55874 -2.12132 2.12132 
C -1.55874 2.683901 -0.795609 3 0 3 
z
" style="stroke: #ffffff"/>
    </defs>
    <g>
     <use xlink:href="#m2e2e035086" x="93.93375" y="13.32625" style="fill: #d6604d; stroke: #ffffff"/>
    </g>
   </g>
   <g id="text_2">
    <text style="font: 8px 'sans-serif'; text-anchor: start" x="105.53375" y="16.12625" transform="rotate(-0, 105.53375, 16.12625)">PlasmaBindNet-Fu</text>
   </g>
   <g id="patch_2">
    <path d="M 181.4675 16.12625 
L 197.4675 16.12625 
L 197.4675 10.52625 
L 181.4675 10.52625 
z
" style="fill: #eaf2f8; stroke: #b8c4cc; stroke-linejoin: miter"/>
   </g>
   <g id="text_3">
    <text style="font: 8px 'sans-serif'; text-anchor: start" x="201.0675" y="16.12625" transform="rotate(-0, 201.0675, 16.12625)">PPB 0–40%</text>
   </g>
   <g id="patch_3">
    <path d="M 253.0075 16.12625 
L 269.0075 16.12625 
L 269.0075 10.52625 
L 253.0075 10.52625 
z
" style="fill: #fff4d6; stroke: #d7c99a; stroke-linejoin: miter"/>
   </g>
   <g id="text_4">
    <text style="font: 8px 'sans-serif'; text-anchor: start" x="272.6075" y="16.12625" transform="rotate(-0, 272.6075, 16.12625)">PPB 40–80%</text>
   </g>
   <g id="patch_4">
    <path d="M 328.99625 16.12625 
L 344.99625 16.12625 
L 344.99625 10.52625 
L 328.99625 10.52625 
z
" style="fill: #f9e6e3; stroke: #d9b7b2; stroke-linejoin: miter"/>
   </g>
   <g id="text_5">
    <text style="font: 8px 'sans-serif'; text-anchor: start" x="348.59625" y="16.12625" transform="rotate(-0, 348.59625, 16.12625)">PPB 80–100%</text>
   </g>
  </g>
 </g>
</svg>
