<?xml version="1.0" encoding="utf-8" standalone="no"?>
<!DOCTYPE svg PUBLIC "-//W3C//DTD SVG 1.1//EN"
  "http://www.w3.org/Graphics/SVG/1.1/DTD/svg11.dtd">
<svg xmlns:xlink="http://www.w3.org/1999/xlink" width="424.1pt" height="28.11625pt" viewBox="0 0 424.1 28.11625" xmlns="http://www.w3.org/2000/svg" version="1.1">
 <metadata>
  <rdf:RDF xmlns:dc="http://purl.org/dc/elements/1.1/" xmlns:cc="http://creativecommons.org/ns#" xmlns:rdf="http://www.w3.org/1999/02/22-rdf-syntax-ns#">
   <cc:Work>
    <dc:type rdf:resource="http://purl.org/dc/dcmitype/StillImage"/>
    <dc:date>2026-08-18T14:38:05.038177</dc:date>
    <dc:format>image/svg+xml</dc:format>
    <dc:creator>
     <cc:Agent>
      <dc:title>Matplotlib v3.5.1, https://matplotlib.org/</dc:title>
     </cc:Agent>
    </dc:creator>
   </cc:Work>
  </rdf:RDF>
 </metadata>
 <defs>
  <style type="text/css">*{stroke-linejoin: round; stroke-linecap: butt}</style>
 </defs>
 <g id="figure_1">
  <g id="patch_1">
   <path d="M 0 28.11625 
L 424.1 28.11625 
L 424.1 0 
L 0 0 
z
" style="fill: #ffffff"/>
  </g>
  <g id="legend_1">
   <g id="line2d_1">
    <path d="M 10.4 13.32625 
L 17.6 13.32625 
L 24.8 13.32625 
" style="fill: none; stroke: #2166ac; stroke-width: 1.8; stroke-linecap: square"/>
   </g>
   <g id="text_1">
    <text style="font: 8px 'sans-serif'; text-anchor: start" x="31.2" y="16.12625" transform="rotate(-0, 31.2, 16.12625)">Predicted total Cmax</text>
   </g>
   <g id="line2d_2">
    <defs>
     <path id="m34d4f9a462" d="M 0 3 
C 0.795609 3 1.55874 2.683901 2.12132 2.12132 
C 2.683901 1.55874 3 0.795609 3 0 
C 3 -0.795609 2.683901 -1.55874 2.12132 -2.12132 
C 1.55874 -2.683901 0.795609 -3 0 -3 
C -0.795609 -3 -1.55874 -2.683901 -2.12132 -2.12132 
C -2.683901 -1.55874 -3 -0.795609 -3 0 
C -3 0.795609 -2.683901 1.55874 -2.12132 2.12132 
C -1.55874 2.683901 -0.795609 3 0 3 
z
" style="stroke: #ffffff"/>
    </defs>
    <g>
     <use xlink:href="#m34d4f9a462" x="120.65" y="13.32625" style="fill: #2166ac; stroke: #ffffff"/>
    </g>
   </g>
   <g id="text_2">
    <text style="font: 8px 'sans-serif'; text-anchor: start" x="134.25" y="16.12625" transform="rotate(-0, 134.25, 16.12625)">Observed total Cmax</text>
   </g>
   <g id="line2d_3">
    <path d="M 217.38625 13.32625 
L 224.58625 13.32625 
L 231.78625 13.32625 
" style="fill: none; stroke-dasharray: 6.66,2.88; stroke-dashoffset: 0; stroke: #d6604d; stroke-width: 1.8"/>
   </g>
   <g id="text_3">
    <text style="font: 8px 'sans-serif'; text-anchor: start" x="238.18625" y="16.12625" transform="rotate(-0, 238.18625, 16.12625)">Predicted free Cmax</text>
   </g>
   <g id="line2d_4">
    <defs>
     <path id="m4d2798a5ff" d="M 0 4.242641 
L 4.242641 0 
L 0 -4.242641 
L -4.242641 0 
z
" style="stroke: #d6604d; stroke-linejoin: miter"/>
    </defs>
    <g>
     <use xlink:href="#m4d2798a5ff" x="326.3" y="13.32625" style="fill: #ffffff; stroke: #d6604d; stroke-linejoin: miter"/>
    </g>
   </g>
   <g id="text_4">
    <text style="font: 8px 'sans-serif'; text-anchor: start" x="339.9" y="16.12625" transform="rotate(-0, 339.9, 16.12625)">Observed free Cmax</text>
   </g>
  </g>
 </g>
</svg>
