<?xml version="1.0" encoding="utf-8" standalone="no"?>
<!DOCTYPE svg PUBLIC "-//W3C//DTD SVG 1.1//EN"
  "http://www.w3.org/Graphics/SVG/1.1/DTD/svg11.dtd">
<svg xmlns:xlink="http://www.w3.org/1999/xlink" width="248.76pt" height="139.14pt" viewBox="0 0 248.76 139.14" xmlns="http://www.w3.org/2000/svg" version="1.1">
 <metadata>
  <rdf:RDF xmlns:dc="http://purl.org/dc/elements/1.1/" xmlns:cc="http://creativecommons.org/ns#" xmlns:rdf="http://www.w3.org/1999/02/22-rdf-syntax-ns#">
   <cc:Work>
    <dc:type rdf:resource="http://purl.org/dc/dcmitype/StillImage"/>
    <dc:date>2026-08-17T18:56:19.243679</dc:date>
    <dc:format>image/svg+xml</dc:format>
    <dc:creator>
     <cc:Agent>
      <dc:title>Matplotlib v3.8.0, https://matplotlib.org/</dc:title>
     </cc:Agent>
    </dc:creator>
   </cc:Work>
  </rdf:RDF>
 </metadata>
 <defs>
  <style type="text/css">*{stroke-linejoin: round; stroke-linecap: butt}</style>
 </defs>
 <g id="figure_1">
  <g id="patch_1">
   <path d="M 0 139.14 
L 248.76 139.14 
L 248.76 0 
L 0 0 
z
" style="fill: #ffffff"/>
  </g>
  <g id="axes_1">
   <g id="table_1">
    <g id="patch_2">
     <path d="M 16.5744 26.97 
L 82.1952 26.97 
L 82.1952 9.93 
L 16.5744 9.93 
z
" style="fill: #d9d9d9; stroke: #333333; stroke-width: 0.7; stroke-linejoin: miter"/>
    </g>
    <g id="text_1">
     <text style="font: 700 9.5px 'Arial', 'Helvetica', 'DejaVu Sans', sans-serif; text-anchor: middle" x="49.3848" y="20.912578" transform="rotate(-0 49.3848 20.912578)">Data set</text>
    </g>
    <g id="patch_3">
     <path d="M 82.1952 26.97 
L 161.8776 26.97 
L 161.8776 9.93 
L 82.1952 9.93 
z
" style="fill: #d9d9d9; stroke: #333333; stroke-width: 0.7; stroke-linejoin: miter"/>
    </g>
    <g id="text_2">
     <text style="font: 700 9.5px 'Arial', 'Helvetica', 'DejaVu Sans', sans-serif; text-anchor: middle" x="122.0364" y="20.970469" transform="rotate(-0 122.0364 20.970469)">Split</text>
    </g>
    <g id="patch_4">
     <path d="M 161.8776 26.97 
L 232.1856 26.97 
L 232.1856 9.93 
L 161.8776 9.93 
z
" style="fill: #d9d9d9; stroke: #333333; stroke-width: 0.7; stroke-linejoin: miter"/>
    </g>
    <g id="text_3">
     <text style="font: 700 9.5px 'Arial', 'Helvetica', 'DejaVu Sans', sans-serif; text-anchor: middle" x="197.0316" y="20.912578" transform="rotate(-0 197.0316 20.912578)">N samples</text>
    </g>
    <g id="patch_5">
     <path d="M 16.5744 44.01 
L 82.1952 44.01 
L 82.1952 26.97 
L 16.5744 26.97 
z
" style="fill: #ffffff; stroke: #333333; stroke-width: 0.7; stroke-linejoin: miter"/>
    </g>
    <g id="text_4">
     <text style="font: 9.5px 'Arial', 'Helvetica', 'DejaVu Sans', sans-serif; text-anchor: middle" x="49.3848" y="37.945898" transform="rotate(-0 49.3848 37.945898)">PPB</text>
    </g>
    <g id="patch_6">
     <path d="M 82.1952 44.01 
L 161.8776 44.01 
L 161.8776 26.97 
L 82.1952 26.97 
z
" style="fill: #ffffff; stroke: #333333; stroke-width: 0.7; stroke-linejoin: miter"/>
    </g>
    <g id="text_5">
     <text style="font: 9.5px 'Arial', 'Helvetica', 'DejaVu Sans', sans-serif; text-anchor: middle" x="122.0364" y="37.945898" transform="rotate(-0 122.0364 37.945898)">Train</text>
    </g>
    <g id="patch_7">
     <path d="M 161.8776 44.01 
L 232.1856 44.01 
L 232.1856 26.97 
L 161.8776 26.97 
z
" style="fill: #ffffff; stroke: #333333; stroke-width: 0.7; stroke-linejoin: miter"/>
    </g>
    <g id="text_6">
     <text style="font: 9.5px 'Arial', 'Helvetica', 'DejaVu Sans', sans-serif; text-anchor: middle" x="197.0316" y="37.945898" transform="rotate(-0 197.0316 37.945898)">6260</text>
    </g>
    <g id="patch_8">
     <path d="M 16.5744 61.05 
L 82.1952 61.05 
L 82.1952 44.01 
L 16.5744 44.01 
z
" style="fill: #f3f3f3; stroke: #333333; stroke-width: 0.7; stroke-linejoin: miter"/>
    </g>
    <g id="text_7">
     <text style="font: 9.5px 'Arial', 'Helvetica', 'DejaVu Sans', sans-serif; text-anchor: middle" x="49.3848" y="54.985898" transform="rotate(-0 49.3848 54.985898)">PPB</text>
    </g>
    <g id="patch_9">
     <path d="M 82.1952 61.05 
L 161.8776 61.05 
L 161.8776 44.01 
L 82.1952 44.01 
z
" style="fill: #f3f3f3; stroke: #333333; stroke-width: 0.7; stroke-linejoin: miter"/>
    </g>
    <g id="text_8">
     <text style="font: 9.5px 'Arial', 'Helvetica', 'DejaVu Sans', sans-serif; text-anchor: middle" x="122.0364" y="54.985898" transform="rotate(-0 122.0364 54.985898)">Valid</text>
    </g>
    <g id="patch_10">
     <path d="M 161.8776 61.05 
L 232.1856 61.05 
L 232.1856 44.01 
L 161.8776 44.01 
z
" style="fill: #f3f3f3; stroke: #333333; stroke-width: 0.7; stroke-linejoin: miter"/>
    </g>
    <g id="text_9">
     <text style="font: 9.5px 'Arial', 'Helvetica', 'DejaVu Sans', sans-serif; text-anchor: middle" x="197.0316" y="54.985898" transform="rotate(-0 197.0316 54.985898)">782</text>
    </g>
    <g id="patch_11">
     <path d="M 16.5744 78.09 
L 82.1952 78.09 
L 82.1952 61.05 
L 16.5744 61.05 
z
" style="fill: #ffffff; stroke: #333333; stroke-width: 0.7; stroke-linejoin: miter"/>
    </g>
    <g id="text_10">
     <text style="font: 9.5px 'Arial', 'Helvetica', 'DejaVu Sans', sans-serif; text-anchor: middle" x="49.3848" y="72.025898" transform="rotate(-0 49.3848 72.025898)">PPB</text>
    </g>
    <g id="patch_12">
     <path d="M 82.1952 78.09 
L 161.8776 78.09 
L 161.8776 61.05 
L 82.1952 61.05 
z
" style="fill: #ffffff; stroke: #333333; stroke-width: 0.7; stroke-linejoin: miter"/>
    </g>
    <g id="text_11">
     <text style="font: 9.5px 'Arial', 'Helvetica', 'DejaVu Sans', sans-serif; text-anchor: middle" x="122.0364" y="72.025898" transform="rotate(-0 122.0364 72.025898)">Test</text>
    </g>
    <g id="patch_13">
     <path d="M 161.8776 78.09 
L 232.1856 78.09 
L 232.1856 61.05 
L 161.8776 61.05 
z
" style="fill: #ffffff; stroke: #333333; stroke-width: 0.7; stroke-linejoin: miter"/>
    </g>
    <g id="text_12">
     <text style="font: 9.5px 'Arial', 'Helvetica', 'DejaVu Sans', sans-serif; text-anchor: middle" x="197.0316" y="72.025898" transform="rotate(-0 197.0316 72.025898)">784</text>
    </g>
    <g id="patch_14">
     <path d="M 16.5744 95.13 
L 82.1952 95.13 
L 82.1952 78.09 
L 16.5744 78.09 
z
" style="fill: #f3f3f3; stroke: #333333; stroke-width: 0.7; stroke-linejoin: miter"/>
    </g>
    <g id="text_13">
     <text style="font: 9.5px 'Arial', 'Helvetica', 'DejaVu Sans', sans-serif; text-anchor: middle" x="49.3848" y="89.065898" transform="rotate(-0 49.3848 89.065898)">Cmax</text>
    </g>
    <g id="patch_15">
     <path d="M 82.1952 95.13 
L 161.8776 95.13 
L 161.8776 78.09 
L 82.1952 78.09 
z
" style="fill: #f3f3f3; stroke: #333333; stroke-width: 0.7; stroke-linejoin: miter"/>
    </g>
    <g id="text_14">
     <text style="font: 9.5px 'Arial', 'Helvetica', 'DejaVu Sans', sans-serif; text-anchor: middle" x="122.0364" y="89.065898" transform="rotate(-0 122.0364 89.065898)">Train</text>
    </g>
    <g id="patch_16">
     <path d="M 161.8776 95.13 
L 232.1856 95.13 
L 232.1856 78.09 
L 161.8776 78.09 
z
" style="fill: #f3f3f3; stroke: #333333; stroke-width: 0.7; stroke-linejoin: miter"/>
    </g>
    <g id="text_15">
     <text style="font: 9.5px 'Arial', 'Helvetica', 'DejaVu Sans', sans-serif; text-anchor: middle" x="197.0316" y="89.065898" transform="rotate(-0 197.0316 89.065898)">4516</text>
    </g>
    <g id="patch_17">
     <path d="M 16.5744 112.17 
L 82.1952 112.17 
L 82.1952 95.13 
L 16.5744 95.13 
z
" style="fill: #ffffff; stroke: #333333; stroke-width: 0.7; stroke-linejoin: miter"/>
    </g>
    <g id="text_16">
     <text style="font: 9.5px 'Arial', 'Helvetica', 'DejaVu Sans', sans-serif; text-anchor: middle" x="49.3848" y="106.105898" transform="rotate(-0 49.3848 106.105898)">Cmax</text>
    </g>
    <g id="patch_18">
     <path d="M 82.1952 112.17 
L 161.8776 112.17 
L 161.8776 95.13 
L 82.1952 95.13 
z
" style="fill: #ffffff; stroke: #333333; stroke-width: 0.7; stroke-linejoin: miter"/>
    </g>
    <g id="text_17">
     <text style="font: 9.5px 'Arial', 'Helvetica', 'DejaVu Sans', sans-serif; text-anchor: middle" x="122.0364" y="106.105898" transform="rotate(-0 122.0364 106.105898)">Valid</text>
    </g>
    <g id="patch_19">
     <path d="M 161.8776 112.17 
L 232.1856 112.17 
L 232.1856 95.13 
L 161.8776 95.13 
z
" style="fill: #ffffff; stroke: #333333; stroke-width: 0.7; stroke-linejoin: miter"/>
    </g>
    <g id="text_18">
     <text style="font: 9.5px 'Arial', 'Helvetica', 'DejaVu Sans', sans-serif; text-anchor: middle" x="197.0316" y="106.105898" transform="rotate(-0 197.0316 106.105898)">564</text>
    </g>
    <g id="patch_20">
     <path d="M 16.5744 129.21 
L 82.1952 129.21 
L 82.1952 112.17 
L 16.5744 112.17 
z
" style="fill: #f3f3f3; stroke: #333333; stroke-width: 0.7; stroke-linejoin: miter"/>
    </g>
    <g id="text_19">
     <text style="font: 9.5px 'Arial', 'Helvetica', 'DejaVu Sans', sans-serif; text-anchor: middle" x="49.3848" y="123.145898" transform="rotate(-0 49.3848 123.145898)">Cmax</text>
    </g>
    <g id="patch_21">
     <path d="M 82.1952 129.21 
L 161.8776 129.21 
L 161.8776 112.17 
L 82.1952 112.17 
z
" style="fill: #f3f3f3; stroke: #333333; stroke-width: 0.7; stroke-linejoin: miter"/>
    </g>
    <g id="text_20">
     <text style="font: 9.5px 'Arial', 'Helvetica', 'DejaVu Sans', sans-serif; text-anchor: middle" x="122.0364" y="123.145898" transform="rotate(-0 122.0364 123.145898)">Test</text>
    </g>
    <g id="patch_22">
     <path d="M 161.8776 129.21 
L 232.1856 129.21 
L 232.1856 112.17 
L 161.8776 112.17 
z
" style="fill: #f3f3f3; stroke: #333333; stroke-width: 0.7; stroke-linejoin: miter"/>
    </g>
    <g id="text_21">
     <text style="font: 9.5px 'Arial', 'Helvetica', 'DejaVu Sans', sans-serif; text-anchor: middle" x="197.0316" y="123.145898" transform="rotate(-0 197.0316 123.145898)">562</text>
    </g>
   </g>
  </g>
 </g>
</svg>
